<?xml version="1.0" standalone="no"?>
<!DOCTYPE svg PUBLIC "-//W3C//DTD SVG 20010904//EN"
 "http://www.w3.org/TR/2001/REC-SVG-20010904/DTD/svg10.dtd">
<svg version="1.0" xmlns="http://www.w3.org/2000/svg"
 width="700.000000pt" height="700.000000pt" viewBox="0 0 700.000000 700.000000"
 preserveAspectRatio="xMidYMid meet">
<metadata>
Created by potrace 1.11, written by Peter Selinger 2001-2013
</metadata>
<g transform="translate(0.000000,700.000000) scale(0.100000,-0.100000)"
fill="#000000" stroke="none">
<path d="M3396 6083 c-1 -1 -42 -4 -91 -7 -50 -3 -101 -8 -115 -10 -14 -3 -47
-7 -75 -10 -27 -3 -61 -8 -75 -11 -14 -2 -50 -10 -80 -16 -455 -91 -918 -338
-1265 -676 -395 -384 -663 -902 -749 -1448 -32 -202 -40 -519 -17 -695 62
-476 234 -903 509 -1269 186 -246 468 -499 732 -655 194 -115 526 -257 607
-260 17 -1 29 -4 28 -7 -3 -5 138 -40 215 -54 14 -3 46 -9 72 -13 34 -7 46 -6
41 2 -4 6 0 5 9 -2 8 -7 23 -10 32 -6 9 4 16 1 16 -6 0 -9 4 -9 17 1 11 10 14
10 9 2 -11 -19 5 -15 20 5 13 16 14 16 7 -2 -5 -16 -2 -18 26 -14 17 3 34 1
37 -4 3 -5 12 -1 20 9 9 12 12 13 9 3 -4 -11 4 -15 30 -17 21 -1 35 3 35 10 0
7 4 6 10 -3 9 -13 12 -13 21 3 6 9 14 15 19 12 5 -3 8 4 7 15 -1 15 -7 20 -19
17 -10 -3 -21 0 -25 5 -3 7 -1 8 5 4 7 -4 12 -2 12 4 0 7 6 8 19 1 20 -11 23
-58 3 -54 -7 2 -12 -2 -12 -7 0 -6 17 -8 41 -5 25 3 38 1 34 -5 -4 -6 2 -7 17
-1 13 4 53 8 91 7 37 -1 67 1 67 4 0 4 23 6 50 5 28 -1 53 1 55 5 3 4 18 6 34
5 23 -2 28 1 23 14 -4 12 -3 14 9 5 12 -9 45 -11 67 -4 12 4 26 7 40 8 9 1 11
9 7 23 -5 15 -4 19 4 15 6 -4 11 -14 11 -22 0 -8 5 -14 11 -14 5 0 8 4 5 9 -3
5 2 15 11 22 14 12 15 11 9 -11 -5 -17 -4 -21 2 -11 6 8 15 10 22 6 8 -5 11
-4 7 2 -9 15 38 44 60 37 15 -5 16 -4 3 5 -13 9 -13 11 1 11 9 0 19 -7 23 -15
6 -17 26 -20 26 -4 0 5 -4 7 -10 4 -5 -3 -10 -2 -10 4 0 21 19 20 34 -1 9 -12
16 -19 16 -14 0 4 -9 19 -19 32 -14 18 -20 21 -24 10 -4 -9 -14 -12 -27 -9
-22 6 -23 24 0 31 7 3 10 0 6 -7 -4 -6 -2 -11 4 -11 7 0 10 6 7 13 -2 6 -11
12 -20 12 -9 0 -22 6 -29 14 -11 12 -10 13 6 7 17 -6 17 -5 5 10 -12 15 -12
17 1 12 8 -3 25 4 38 15 12 11 22 16 22 10 0 -5 -9 -18 -20 -28 -19 -17 -19
-20 -5 -28 12 -6 22 -3 36 12 11 12 15 21 10 21 -6 0 -14 -8 -20 -17 -5 -10
-13 -15 -17 -10 -4 4 1 16 10 26 10 11 16 24 13 29 -3 4 3 15 14 22 10 8 19
19 19 24 0 5 -13 -3 -30 -19 -16 -16 -30 -23 -30 -17 0 7 -5 12 -11 12 -8 0
-8 -5 1 -15 7 -8 8 -15 2 -15 -12 0 -37 29 -30 36 3 3 16 6 29 7 19 1 59 30
59 43 0 2 -9 8 -21 14 -16 9 -25 8 -40 -6 -10 -9 -22 -14 -27 -9 -4 4 -1 10 6
12 14 5 16 23 3 23 -5 0 -13 -9 -16 -20 -4 -11 -11 -18 -16 -14 -5 3 -7 10 -4
15 4 5 1 9 -4 9 -14 0 -14 -13 1 -28 9 -9 9 -12 0 -12 -6 0 -16 8 -21 18 -10
16 -10 16 -11 -1 0 -10 -4 -16 -9 -12 -5 3 -12 1 -16 -5 -3 -5 -14 -10 -23
-10 -14 0 -13 2 2 13 16 12 16 14 2 14 -9 0 -16 -4 -16 -8 0 -4 -9 -6 -20 -4
-11 2 -22 -1 -26 -7 -4 -6 -10 -5 -15 3 -5 8 -9 9 -9 3 0 -7 -13 -10 -30 -9
-16 1 -27 -1 -25 -6 3 -4 1 -10 -5 -14 -5 -3 -10 -2 -10 3 0 16 -52 7 -62 -12
-9 -16 -8 -16 11 -7 20 11 25 8 22 -12 -1 -4 8 -3 18 3 13 7 22 7 26 0 4 -6
11 -8 16 -5 5 4 9 1 9 -4 0 -14 -13 -14 -28 1 -7 7 -12 9 -12 5 0 -4 14 -16
30 -26 27 -16 29 -20 15 -31 -13 -11 -14 -10 -9 4 3 9 1 16 -6 16 -6 0 -9 -4
-6 -9 3 -5 -2 -15 -11 -22 -11 -10 -14 -10 -9 -2 5 9 2 11 -11 7 -14 -4 -15
-3 -4 4 9 7 10 12 2 16 -10 7 -16 -6 -12 -27 2 -12 -33 -4 -45 11 -8 11 -13
11 -25 -4 -12 -16 -12 -17 3 -11 10 3 20 2 23 -4 4 -5 11 -7 16 -4 5 4 9 1 9
-5 0 -6 5 -8 12 -4 6 4 8 3 4 -4 -11 -18 23 -7 40 14 14 18 15 18 4 -4 -6 -12
-7 -22 -3 -21 16 4 43 -13 37 -23 -3 -5 -11 -2 -18 8 -11 15 -13 15 -13 0 0
-9 5 -16 10 -16 5 0 1 -8 -10 -17 -10 -10 -14 -15 -9 -11 15 12 26 10 26 -4 0
-6 -3 -9 -6 -5 -4 3 -22 -5 -40 -20 -23 -17 -34 -21 -34 -12 0 11 -3 11 -11
-1 -9 -13 -10 -12 -5 3 5 15 3 16 -15 6 -12 -6 -19 -7 -16 -2 4 5 0 10 -7 10
-7 0 -13 -6 -13 -13 0 -7 5 -10 11 -7 6 3 8 2 3 -2 -4 -5 -18 -10 -30 -12 -15
-2 -18 0 -9 6 11 6 10 9 -3 15 -23 8 -25 8 -22 -6 1 -7 -14 -12 -45 -12 -40
-1 -45 1 -37 16 12 22 12 25 -6 25 -9 0 -14 -6 -11 -13 3 -9 -1 -11 -12 -7
-15 6 -15 5 -3 -10 9 -11 10 -17 2 -17 -6 0 -11 5 -11 11 0 5 -6 7 -12 3 -7
-5 -1 6 14 24 17 20 25 39 21 50 -4 13 -2 13 10 -3 9 -11 17 -15 17 -8 0 6 -8
20 -17 29 -17 17 -17 18 0 11 9 -3 23 -4 30 -1 17 6 15 43 -2 54 -10 6 -10 12
-2 29 7 12 16 19 20 16 7 -4 21 16 21 29 0 1 -16 2 -35 3 -27 0 -33 -2 -25
-12 10 -12 4 -45 -9 -45 -10 0 -37 20 -27 20 6 0 1 8 -10 18 -19 18 -78 23
-102 8 -7 -4 -12 -3 -12 1 0 5 -9 9 -19 10 -14 1 -18 -3 -14 -15 4 -14 3 -14
-5 -3 -11 16 -18 18 -107 25 -33 3 -77 8 -99 12 -25 4 -36 2 -32 -4 3 -6 -7
-4 -24 5 -17 8 -37 12 -45 9 -8 -3 -15 -2 -15 2 0 4 -12 9 -27 10 -33 3 -52 7
-73 15 -8 3 -26 8 -40 10 -115 22 -299 91 -475 177 -624 304 -1081 883 -1234
1565 -12 54 -15 67 -26 135 -4 25 -9 54 -11 65 -9 47 -18 208 -18 315 1 151 9
251 34 391 128 717 573 1323 1213 1653 183 95 446 190 582 212 22 3 43 8 46 9
3 2 28 7 55 11 27 3 58 8 69 11 11 2 49 6 85 9 36 3 77 9 93 14 15 5 27 6 27
2 0 -4 69 -7 153 -8 83 0 170 -4 193 -8 31 -5 44 -3 54 9 10 12 10 15 0 15 -8
0 -11 2 -8 5 3 3 13 3 22 -1 15 -6 15 -7 -1 -21 -17 -14 -17 -14 0 -9 9 3 17
1 17 -4 0 -5 10 -10 23 -9 12 0 33 -2 47 -4 14 -2 45 -8 70 -12 24 -3 49 -9
54 -12 5 -4 19 -7 30 -9 12 -2 30 -5 41 -8 11 -2 27 -6 35 -8 8 -1 18 -7 22
-13 5 -6 8 -4 8 4 0 11 5 9 22 -5 14 -12 18 -13 10 -3 -6 9 -9 19 -5 23 4 4
12 -3 19 -15 6 -13 18 -24 25 -25 27 -6 54 -12 59 -14 3 -1 8 -2 13 -1 4 0 7
-5 7 -12 0 -8 4 -7 10 3 9 13 10 13 10 0 0 -13 2 -13 9 -1 5 8 7 20 4 27 -2 6
0 15 6 19 6 3 11 0 11 -7 0 -7 9 -19 21 -26 12 -7 18 -16 15 -19 -3 -3 -12 -1
-20 6 -11 9 -15 8 -19 -3 -4 -9 -1 -18 5 -22 7 -4 8 -3 4 4 -4 7 -2 12 3 12 6
0 11 -5 11 -11 0 -8 6 -7 17 2 15 12 16 12 10 -4 -4 -10 -3 -16 2 -12 5 3 12
-1 15 -7 2 -7 4 -2 3 12 -2 27 17 31 57 15 15 -7 18 -5 13 7 -9 26 5 30 17 5
11 -22 37 -31 35 -12 0 5 8 13 18 17 16 7 16 8 -2 5 -11 -2 -19 -9 -18 -15 5
-22 -17 -12 -27 12 -5 13 -14 27 -21 32 -7 4 -10 3 -5 -4 10 -16 -7 -22 -21
-7 -10 11 -9 15 8 20 11 4 18 9 16 12 -3 2 -15 -1 -27 -7 -20 -11 -20 -13 -6
-29 14 -16 13 -17 -24 -17 -27 1 -39 5 -36 13 3 7 -1 10 -12 7 -12 -4 -10 1 7
15 25 22 54 30 33 9 -15 -15 -15 -28 -1 -28 5 0 8 4 4 9 -8 14 44 51 63 44 14
-4 15 -3 2 6 -11 7 -21 6 -36 -4 -19 -12 -24 -12 -35 1 -11 13 -10 15 2 14 26
-4 39 0 39 11 0 8 -4 8 -12 2 -7 -5 -28 -9 -46 -7 -18 1 -35 -2 -38 -7 -6 -11
-24 -2 -24 12 0 6 4 8 9 4 5 -3 17 2 25 11 9 8 16 11 16 5 0 -6 5 -11 11 -11
8 0 8 4 0 14 -10 12 -9 17 6 24 10 5 24 7 31 5 15 -6 16 23 0 33 -7 5 -5 12 8
22 15 12 16 14 2 9 -9 -3 -19 -3 -21 1 -2 4 -2 1 0 -6 1 -8 -3 -12 -9 -9 -7 2
-12 12 -10 22 3 12 -1 16 -12 12 -8 -3 -17 -1 -20 6 -3 9 -5 9 -5 0 -1 -7 -5
-13 -11 -13 -5 0 -9 6 -7 13 1 7 -9 12 -26 11 -19 0 -26 4 -23 13 4 11 1 11
-15 3 -11 -6 -17 -15 -14 -20 3 -6 -1 -7 -10 -4 -12 5 -13 10 -6 17 6 6 11 16
11 21 0 6 -5 4 -10 -4 -6 -10 -10 -11 -10 -3 0 7 -3 12 -7 12 -20 -3 -34 2
-29 10 4 5 -2 8 -11 6 -10 -1 -23 2 -30 7 -7 5 -17 7 -22 4 -5 -4 -12 -2 -16
4 -8 13 -35 13 -35 0 0 -5 8 -7 18 -4 10 4 13 2 7 -3 -15 -12 -18 -36 -4 -27
8 5 9 3 4 -6 -6 -9 -4 -11 6 -6 8 4 5 0 -5 -8 -11 -9 -15 -16 -10 -16 6 0 15
5 22 12 9 9 11 6 7 -11 -2 -14 0 -19 7 -15 7 5 8 2 3 -6 -5 -8 -4 -11 3 -6 6
3 9 15 7 26 -3 14 0 18 8 13 7 -4 5 2 -3 12 -11 14 -7 13 18 -5 34 -25 39 -35
22 -45 -6 -3 -7 1 -4 9 9 23 -10 19 -32 -6 l-19 -23 25 20 25 20 -19 -22 c-10
-13 -23 -20 -27 -17 -5 3 -9 0 -9 -5 0 -16 10 -14 34 7 21 17 21 17 2 -5 -13
-15 -27 -21 -42 -19 -13 3 -26 0 -29 -5 -4 -5 1 -9 9 -9 9 0 16 -5 16 -11 0
-5 -4 -8 -9 -4 -5 3 -13 0 -17 -6 -5 -8 -3 -9 7 -4 12 8 12 6 0 -8 -18 -23 -7
-34 16 -16 17 13 17 13 3 -6 -14 -18 -13 -19 1 -8 13 10 16 10 16 -2 0 -8 -5
-11 -10 -8 -6 4 -7 1 -2 -7 6 -9 4 -11 -5 -5 -8 5 -11 4 -7 -2 6 -10 -21 -11
-38 -1 -6 3 -20 4 -32 3 -12 -1 -19 3 -16 8 3 5 -3 6 -15 3 -12 -4 -26 -1 -35
8 -8 8 -18 12 -23 8 -5 -4 -2 1 5 11 9 12 10 17 2 17 -6 0 -14 -7 -17 -15 -4
-8 -10 -15 -16 -15 -5 0 -6 5 -3 10 3 6 1 10 -4 10 -6 0 -11 -4 -11 -10 0 -5
-5 -10 -11 -10 -8 0 -8 4 0 14 10 12 8 17 -7 25 -16 9 -23 6 -36 -12 l-17 -22
11 22 c14 30 28 37 45 23 9 -7 15 -8 15 -2 0 5 -7 16 -16 23 -15 12 -21 9 -52
-26 -19 -22 -32 -32 -29 -22 4 11 1 20 -8 24 -12 4 -8 11 16 29 20 15 34 34
36 51 5 49 6 53 15 53 11 0 10 -7 -3 -31 -6 -11 -8 -25 -6 -32 2 -7 11 2 20
19 9 17 13 35 9 39 -4 5 -1 5 7 0 9 -5 12 -3 9 6 -3 8 -14 13 -24 12 -10 -1
-13 0 -6 3 17 8 15 27 -2 21 -7 -3 -23 1 -34 8 -10 8 -22 12 -24 9 -3 -2 -11
2 -18 11 -8 10 -9 15 -1 15 6 0 11 -5 11 -12 0 -6 3 -8 6 -5 4 3 16 1 28 -5
30 -17 57 -17 63 -1 4 11 9 11 24 -3 15 -14 19 -14 19 -3 1 8 7 3 15 -11 13
-23 20 -20 15 5 -1 5 7 2 17 -8 15 -13 22 -14 33 -4 8 7 11 8 7 1 -7 -13 17
-27 27 -17 10 10 7 33 -5 33 -5 0 -7 -6 -3 -12 5 -10 4 -10 -6 -1 -7 6 -19 9
-28 6 -11 -5 -13 -3 -7 7 5 9 4 11 -3 6 -7 -4 -18 -4 -24 1 -7 4 -21 8 -30 9
-10 1 -19 3 -20 4 -9 9 -54 6 -60 -4 -5 -8 -11 -7 -20 3 -11 11 -11 13 1 6 10
-6 12 -4 7 4 -4 7 -13 10 -19 8 -7 -2 -22 0 -34 4 -14 5 -25 4 -29 -2 -4 -8
-9 -8 -13 -1 -9 15 -131 22 -131 8 0 -8 -2 -8 -8 0 -11 17 -54 24 -69 12 -7
-6 -13 -7 -13 -2 0 7 -167 14 -174 7z m200 -45 c12 -14 13 -18 3 -10 -9 6 -18
10 -21 7 -2 -3 -5 2 -5 10 0 19 0 19 23 -7z m137 -4 c-7 -19 -10 -18 -16 5 -3
13 -1 18 9 14 7 -2 10 -11 7 -19z m-190 -4 c10 -12 9 -12 -4 -2 -9 6 -18 9
-21 6 -3 -3 -9 -1 -12 4 -9 15 22 8 37 -8z m145 -15 c-3 -3 -9 2 -12 12 -6 14
-5 15 5 6 7 -7 10 -15 7 -18z m82 10 c5 3 14 -3 19 -14 8 -14 7 -22 -4 -31 -9
-7 -18 -10 -22 -6 -3 3 -2 6 3 6 5 0 10 9 11 20 1 11 -3 19 -9 17 -6 -1 -12 4
-13 11 -2 7 -1 8 2 2 2 -5 9 -8 13 -5z m38 -10 c-3 -3 -9 2 -12 12 -6 14 -5
15 5 6 7 -7 10 -15 7 -18z m-345 -10 c-3 -9 -8 -14 -10 -11 -3 3 -2 9 2 15 9
16 15 13 8 -4z m132 -3 c-3 -3 -11 0 -18 7 -9 10 -8 11 6 5 10 -3 15 -9 12
-12z m70 8 c-3 -5 -14 -10 -23 -9 -14 0 -13 2 3 9 27 11 27 11 20 0z m89 -8
c3 -5 -1 -9 -9 -9 -8 0 -15 4 -15 9 0 4 4 8 9 8 6 0 12 -4 15 -8z m96 -2 c0
-5 -7 -7 -15 -4 -8 4 -15 8 -15 10 0 2 7 4 15 4 8 0 15 -4 15 -10z m-283 -13
c0 -8 -6 -14 -14 -14 -9 0 -10 4 -2 14 6 7 12 13 14 13 1 0 2 -6 2 -13z m-177
-7 c0 -5 -5 -10 -11 -10 -5 0 -7 5 -4 10 3 6 8 10 11 10 2 0 4 -4 4 -10z m220
6 c0 -2 -7 -7 -16 -10 -8 -3 -12 -2 -9 4 6 10 25 14 25 6z m77 -18 c2 -18 0
-20 -7 -8 -12 18 -13 30 -2 30 4 0 9 -10 9 -22z m153 12 c8 -5 12 -11 9 -14
-3 -3 -14 1 -25 9 -21 16 -8 20 16 5z m40 6 c0 -3 -4 -8 -10 -11 -5 -3 -10 -1
-10 4 0 6 5 11 10 11 6 0 10 -2 10 -4z m298 -6 c1 -1 5 -3 10 -4 4 -2 20 -9
35 -16 20 -10 24 -16 15 -22 -11 -6 -10 -8 0 -8 7 0 11 -4 8 -9 -3 -5 6 -8 20
-8 18 0 24 4 20 14 -4 8 -1 11 5 8 6 -4 8 -14 5 -22 -3 -8 -1 -11 4 -8 12 7
12 3 4 -19 -5 -13 -9 -12 -25 7 -10 12 -19 19 -20 15 -1 -5 -3 -12 -4 -18 -1
-5 -3 -13 -4 -17 0 -4 -8 2 -16 13 -13 16 -14 16 -9 2 4 -11 1 -18 -6 -18 -6
0 -8 -5 -4 -11 4 -8 9 -7 16 2 6 10 7 7 3 -8 -4 -15 -2 -23 6 -23 7 0 9 -3 5
-7 -4 -5 -14 1 -22 11 -8 11 -14 14 -14 8 0 -8 -10 -11 -26 -8 -24 5 -25 4
-11 -12 8 -9 13 -25 12 -34 -2 -10 2 -21 7 -25 6 -3 8 -2 5 4 -3 5 0 10 7 10
8 0 12 -7 9 -16 -2 -9 2 -5 10 8 9 15 17 20 21 12 4 -6 2 -11 -4 -11 -7 0 -9
-7 -6 -16 4 -10 2 -13 -6 -8 -6 4 -8 3 -5 -2 3 -6 2 -16 -4 -24 -8 -14 -11 -7
-8 16 1 11 -25 23 -36 16 -5 -3 -16 -7 -23 -8 -11 -2 -11 1 0 14 16 19 17 31
4 50 -6 11 -11 11 -24 0 -13 -9 -12 -7 1 9 11 12 16 26 12 32 -3 6 0 9 7 6 8
-3 29 10 47 29 31 32 32 36 19 55 -8 12 -17 19 -20 16 -3 -3 -11 1 -18 10 -17
20 -34 19 -26 -1 5 -14 4 -15 -9 -4 -21 18 -19 28 8 25 12 -1 23 -4 25 -5z
m-451 -32 c-3 -7 -5 -2 -5 12 0 14 2 19 5 13 2 -7 2 -19 0 -25z m-120 7 c0 -8
-4 -12 -9 -9 -5 3 -6 10 -3 15 9 13 12 11 12 -6z m203 7 c0 -4 -10 -9 -22 -9
-18 -2 -20 0 -8 7 18 12 30 13 30 2z m-40 -37 c0 -5 -5 -3 -10 5 -5 8 -10 20
-10 25 0 6 5 3 10 -5 5 -8 10 -19 10 -25z m100 25 c0 -5 -5 -10 -11 -10 -5 0
-7 5 -4 10 3 6 8 10 11 10 2 0 4 -4 4 -10z m-480 -10 c0 -5 -5 -10 -11 -10 -5
0 -7 5 -4 10 3 6 8 10 11 10 2 0 4 -4 4 -10z m40 0 c0 -5 -2 -10 -4 -10 -3 0
-8 5 -11 10 -3 6 -1 10 4 10 6 0 11 -4 11 -10z m405 0 c-3 -5 -11 -10 -16 -10
-6 0 -7 5 -4 10 3 6 11 10 16 10 6 0 7 -4 4 -10z m-145 -42 c0 -5 -5 -8 -11
-8 -5 0 -8 4 -4 9 3 5 1 12 -5 16 -5 3 -10 11 -10 18 0 12 29 -23 30 -35z
m100 12 c-6 -12 -14 -20 -17 -17 -2 3 1 14 8 26 17 26 24 19 9 -9z m-326 4 c3
-8 2 -12 -4 -9 -6 3 -10 10 -10 16 0 14 7 11 14 -7z m286 6 c0 -5 -4 -10 -10
-10 -5 0 -10 5 -10 10 0 6 5 10 10 10 6 0 10 -4 10 -10z m100 0 c-8 -5 -19
-10 -25 -10 -5 0 -3 5 5 10 8 5 20 10 25 10 6 0 3 -5 -5 -10z m497 -5 c-1 -5
6 -9 16 -9 10 1 16 -3 14 -10 -2 -6 -15 -11 -30 -10 -14 0 -24 -3 -21 -7 2 -4
0 -10 -6 -14 -6 -4 -8 -10 -5 -15 3 -5 1 -11 -4 -14 -5 -3 -12 2 -16 12 -6 16
-7 16 -20 -2 -19 -26 -39 -11 -23 17 7 12 11 26 10 30 -1 5 2 6 8 2 6 -3 8
-10 5 -15 -3 -4 1 -10 8 -13 16 -6 39 6 39 19 0 5 4 8 9 7 4 -2 6 4 3 12 -4 8
-10 12 -15 9 -5 -3 -9 -1 -9 5 0 5 9 9 19 8 11 0 19 -6 18 -12z m-780 -10 c0
-8 -10 -23 -21 -32 -21 -18 -21 -18 -2 5 11 12 16 22 12 22 -4 0 -4 5 -1 10 9
14 12 13 12 -5z m-33 -7 c-3 -4 -9 -8 -15 -8 -5 0 -9 4 -9 8 0 5 7 9 15 9 8 0
12 -4 9 -9z m76 8 c0 -2 -7 -7 -16 -10 -8 -3 -12 -2 -9 4 6 10 25 14 25 6z
m44 -19 c4 4 4 -1 0 -11 -6 -15 -4 -17 7 -11 8 5 11 4 6 0 -14 -16 -36 -14
-30 3 4 10 2 13 -5 8 -6 -3 -14 -1 -18 5 -5 8 -3 9 6 4 10 -6 12 -3 7 11 -7
18 -6 18 6 2 8 -10 17 -15 21 -11z m167 2 c6 -13 7 -19 1 -15 -6 3 -12 1 -14
-6 -3 -7 -7 -5 -11 6 -5 11 -3 15 5 10 8 -5 9 -2 5 9 -9 24 0 21 14 -4z m39
11 c0 -5 -8 -10 -17 -10 -15 0 -16 2 -3 10 19 12 20 12 20 0z m-140 -15 c-7
-8 -18 -15 -24 -15 -6 0 -2 7 8 15 25 19 32 19 16 0z m32 -11 c-5 -10 -17 -19
-26 -20 -9 -1 -14 2 -10 7 3 5 9 7 14 4 5 -3 12 4 15 16 4 11 9 18 12 16 3 -3
0 -13 -5 -23z m652 7 c3 -5 -2 -15 -11 -22 -15 -12 -16 -12 -10 4 9 24 0 21
-14 -4 -8 -15 -8 -19 0 -15 6 4 11 2 11 -5 0 -6 8 -1 18 11 18 22 42 21 42 -1
0 -6 -5 -7 -11 -4 -5 4 -18 0 -27 -8 -19 -16 -52 -19 -52 -4 0 6 -9 2 -20 -8
-11 -10 -20 -13 -20 -7 0 6 5 14 10 17 6 4 8 10 5 15 -3 5 4 14 15 20 11 6 20
7 20 3 0 -4 5 -2 12 5 14 14 25 15 32 3z m-1059 -10 c3 -5 2 -12 -3 -15 -5 -3
-9 1 -9 9 0 17 3 19 12 6z m445 -12 c0 -6 -4 -7 -10 -4 -5 3 -10 11 -10 16 0
6 5 7 10 4 6 -3 10 -11 10 -16z m-210 7 c0 -2 -8 -10 -17 -17 -16 -13 -17 -12
-4 4 13 16 21 21 21 13z m120 -10 c0 -2 -7 -7 -16 -10 -8 -3 -12 -2 -9 4 6 10
25 14 25 6z m-90 -16 c0 -5 -4 -10 -10 -10 -5 0 -10 5 -10 10 0 6 5 10 10 10
6 0 10 -4 10 -10z m700 -44 c0 -6 -6 -2 -13 8 -13 18 -47 13 -47 -6 0 -6 7 -5
15 2 13 11 18 10 30 -6 21 -28 18 -40 -4 -20 -11 10 -24 15 -30 12 -5 -4 -12
-2 -16 4 -4 7 -12 7 -26 0 -10 -6 -20 -8 -20 -5 -1 3 -2 8 -3 13 -1 4 -4 12
-8 18 -8 12 20 12 39 1 15 -10 53 9 53 26 1 13 29 -32 30 -47z m-540 24 c0 -5
-4 -10 -10 -10 -5 0 -10 5 -10 10 0 6 5 10 10 10 6 0 10 -4 10 -10z m140 -4
c0 -2 -7 -9 -15 -16 -13 -11 -14 -10 -9 4 5 14 24 23 24 12z m460 -8 c0 -13
-20 -19 -20 -6 0 8 -5 6 -11 -4 -5 -10 -15 -18 -22 -18 -7 0 -6 4 3 10 8 5 11
10 7 10 -5 0 -6 4 -2 9 6 11 45 10 45 -1z m-48 -66 c-16 20 2 35 22 19 8 -7
16 -7 23 0 11 11 43 2 43 -13 0 -6 -7 -5 -15 2 -13 11 -14 10 -10 -2 3 -8 -1
-21 -10 -28 -8 -7 -15 -8 -15 -3 0 5 -7 18 -16 29 -8 10 -13 13 -9 6 11 -22
-38 -68 -57 -52 -2 1 -11 3 -21 5 -27 5 -31 13 -17 30 7 8 9 15 4 15 -5 0 0 7
10 15 18 14 23 13 50 -12 17 -16 25 -21 18 -11z m-144 -4501 c16 -10 -9 -33
-41 -38 -35 -6 -42 -20 -22 -43 10 -11 16 -23 12 -26 -3 -3 -13 6 -22 20 -10
14 -21 23 -26 20 -5 -3 -9 -1 -9 5 0 5 3 11 8 14 4 2 1 2 -5 1 -7 -2 -13 2
-14 9 0 8 -2 7 -6 -2 -5 -11 -7 -11 -14 0 -7 11 -9 10 -10 -3 -3 -31 -4 -36
-11 -44 -5 -4 -8 -2 -8 4 0 7 -5 12 -11 12 -8 0 -9 -4 0 -13 6 -8 8 -17 4 -20
-3 -4 -13 2 -20 13 -8 11 -19 17 -25 14 -7 -4 -8 -2 -4 4 4 6 13 9 21 6 8 -3
25 5 37 19 17 18 31 23 56 21 19 -2 32 1 32 7 0 8 4 8 13 1 10 -8 16 -6 25 9
13 21 20 23 40 10z m-183 -39 c21 -12 11 -16 -27 -13 -10 1 -18 -3 -18 -8 0
-6 0 -14 0 -18 0 -5 5 -8 10 -8 6 0 9 -4 8 -8 -2 -5 5 -13 15 -19 15 -8 22 -6
34 11 8 12 19 19 24 15 14 -8 -31 -39 -58 -39 -12 -1 -19 3 -16 9 4 5 1 6 -7
1 -8 -5 -11 -4 -6 3 3 6 2 13 -3 17 -6 3 -8 -4 -6 -16 3 -13 -1 -29 -8 -38
-10 -12 -9 -13 1 -7 11 7 11 4 0 -13 -14 -22 -28 -28 -28 -10 0 5 -4 8 -9 4
-20 -12 -22 17 -3 38 18 21 20 53 2 42 -4 -3 -7 3 -6 12 0 10 -5 18 -11 19
-24 3 -25 4 -14 18 6 7 25 12 41 11 17 -1 33 1 35 5 6 10 24 7 50 -8z m-150
-20 c-3 -3 -11 0 -18 7 -9 10 -8 11 6 5 10 -3 15 -9 12 -12z m-740 -2 c3 -5 1
-10 -4 -10 -6 0 -11 5 -11 10 0 6 2 10 4 10 3 0 8 -4 11 -10z m963 -47 c-5 -7
-6 -18 -2 -24 5 -9 2 -10 -9 -6 -19 7 -67 -11 -67 -25 0 -5 -5 -6 -10 -3 -6 4
-8 11 -5 16 3 5 -2 6 -12 3 -15 -5 -16 -4 -3 5 8 6 22 8 31 6 9 -3 22 1 29 10
7 8 16 13 20 10 15 -9 19 24 4 36 -12 10 -12 14 -2 20 17 11 40 -31 26 -48z
m-794 25 c-4 -5 -9 -7 -12 -4 -3 3 -12 0 -21 -7 -14 -10 -14 -10 -4 4 13 16
46 23 37 7z m120 4 c3 -5 -1 -9 -9 -9 -8 0 -12 4 -9 9 3 4 7 8 9 8 2 0 6 -4 9
-8z m102 -3 c4 -8 9 -8 17 0 14 14 27 14 27 0 0 -5 -4 -8 -9 -5 -5 3 -14 -1
-21 -9 -15 -18 -52 -14 -58 6 -2 8 0 10 5 4 4 -5 17 -11 28 -13 20 -3 20 -2 1
13 -11 8 -15 15 -9 15 7 0 15 -5 19 -11z m598 -33 c-3 -9 -10 -16 -15 -16 -12
0 -12 17 1 25 5 3 7 13 4 23 -5 16 -5 16 5 0 6 -9 8 -23 5 -32z m-984 14 c0
-5 -2 -10 -4 -10 -3 0 -8 5 -11 10 -3 6 -1 10 4 10 6 0 11 -4 11 -10z m104 2
c3 -5 -1 -9 -9 -9 -8 0 -12 4 -9 9 3 4 7 8 9 8 2 0 6 -4 9 -8z m227 -17 c3 2
6 -6 6 -17 2 -21 1 -21 -15 3 -10 15 -25 24 -37 22 l-20 -3 20 9 c14 6 23 5
31 -5 6 -7 13 -12 15 -9z m-174 0 c0 -8 -3 -13 -5 -10 -3 3 -12 -1 -21 -7 -10
-8 -9 -4 3 10 23 26 23 26 23 7z m42 1 c9 -10 8 -15 -2 -19 -8 -3 -13 3 -13
14 0 23 0 23 15 5z m219 0 c-7 -8 -15 -12 -17 -11 -5 6 10 25 20 25 5 0 4 -6
-3 -14z m-363 -14 c-3 -3 -11 0 -18 7 -9 10 -8 11 6 5 10 -3 15 -9 12 -12z
m185 8 c0 -5 -4 -10 -10 -10 -5 0 -10 5 -10 10 0 6 5 10 10 10 6 0 10 -4 10
-10z m240 -12 c9 -20 9 -21 -2 -7 -7 9 -20 18 -28 22 -12 4 -12 6 2 6 10 1 22
-9 28 -21z m-90 -3 c9 -10 9 -15 1 -15 -6 0 -11 4 -11 9 0 5 -8 12 -17 14 -15
4 -15 5 -2 6 9 0 22 -6 29 -14z m82 -17 c27 -27 8 -21 -27 8 -19 15 -23 22
-11 18 11 -4 28 -16 38 -26z m-367 12 c-3 -5 -12 -10 -18 -10 -7 0 -6 4 3 10
19 12 23 12 15 0z m225 -32 c0 -4 6 -7 13 -5 18 3 15 -46 -3 -50 -9 -3 -11 -1
-5 4 14 11 19 47 6 38 -6 -3 -16 5 -22 19 -7 14 -16 23 -22 19 -6 -4 -7 -1 -2
7 6 10 11 9 22 -5 7 -11 13 -22 13 -27z m-395 23 c3 -5 2 -12 -3 -15 -5 -3 -9
1 -9 9 0 17 3 19 12 6z m121 -11 c0 -12 -4 -16 -9 -11 -5 5 -6 14 -3 20 10 15
12 14 12 -9z m359 1 c-3 -6 -11 -11 -16 -11 -5 0 -4 6 3 14 14 16 24 13 13 -3z
m102 4 c0 -8 -4 -15 -9 -15 -4 0 -8 7 -8 15 0 8 4 15 8 15 5 0 9 -7 9 -15z
m470 2 c19 -20 -7 -74 -29 -61 -15 10 -8 23 10 18 9 -3 6 1 -8 9 -14 9 -24 19
-22 23 2 5 -2 10 -10 12 -10 3 -10 1 1 -6 11 -8 9 -11 -10 -18 -13 -4 -27 -7
-31 -6 -5 1 -8 -2 -8 -7 0 -6 -9 -8 -19 -6 -22 4 -36 -20 -19 -31 6 -4 8 -3 5
3 -4 6 0 13 8 17 8 3 18 -2 23 -11 6 -11 11 -12 16 -4 4 6 1 11 -6 11 -9 0 -9
3 2 10 20 13 30 12 30 -1 0 -5 -4 -7 -10 -4 -5 3 -7 0 -4 -8 7 -20 -13 -32
-31 -17 -16 13 -30 -3 -19 -22 4 -7 3 -8 -4 -4 -7 4 -12 2 -12 -4 0 -6 -4 -9
-9 -5 -5 3 -12 1 -15 -3 -7 -12 -62 -8 -58 4 1 5 8 9 15 9 6 0 11 9 10 18 0
11 12 27 30 38 18 10 28 19 23 19 -6 0 -5 5 2 12 9 9 15 9 24 0 8 -8 17 -7 34
7 24 19 75 23 91 8z m-967 -7 c0 -5 -5 -10 -11 -10 -5 0 -7 5 -4 10 3 6 8 10
11 10 2 0 4 -4 4 -10z m120 0 c0 -5 -5 -10 -11 -10 -5 0 -7 5 -4 10 3 6 8 10
11 10 2 0 4 -4 4 -10z m145 0 c3 -5 1 -10 -4 -10 -6 0 -11 5 -11 10 0 6 2 10
4 10 3 0 8 -4 11 -10z m99 -21 c11 -18 14 -29 8 -25 -6 3 -12 3 -15 -1 -2 -5
-2 -2 0 6 2 8 -4 22 -13 32 -10 11 -13 19 -8 19 5 0 18 -14 28 -31z m56 16 c0
-8 -4 -15 -10 -15 -5 0 -7 7 -4 15 4 8 8 15 10 15 2 0 4 -7 4 -15z m300 5 c0
-5 -2 -10 -4 -10 -3 0 -8 5 -11 10 -3 6 -1 10 4 10 6 0 11 -4 11 -10z m-636
-18 c2 -4 -4 -8 -14 -8 -10 0 -16 4 -14 8 3 4 9 8 14 8 5 0 11 -4 14 -8z m364
-17 c-3 -3 -9 2 -12 12 -6 14 -5 15 5 6 7 -7 10 -15 7 -18z m-43 -3 c-3 -3
-11 0 -18 7 -9 10 -8 11 6 5 10 -3 15 -9 12 -12z m517 3 c0 -8 1 -19 2 -25 1
-5 -3 -11 -9 -12 -5 -2 -10 9 -10 25 -1 28 14 39 17 12z m-967 -5 c3 -5 1 -10
-4 -10 -6 0 -11 5 -11 10 0 6 2 10 4 10 3 0 8 -4 11 -10z m49 2 c3 -5 -1 -9
-9 -9 -8 0 -15 4 -15 9 0 4 4 8 9 8 6 0 12 -4 15 -8z m248 -18 c9 -18 8 -18
-5 -2 -8 10 -16 15 -19 12 -4 -3 -9 -1 -12 4 -3 6 1 9 10 8 9 -1 21 -11 26
-22z m53 16 c3 -6 -1 -7 -9 -4 -18 7 -21 14 -7 14 6 0 13 -4 16 -10z m105 -28
c-13 -18 -28 -28 -37 -25 -17 7 -11 28 8 28 8 0 21 7 29 17 24 27 24 12 0 -20z
m-110 3 c0 -2 -6 -7 -12 -11 -7 -4 -10 -4 -6 1 4 4 0 14 -10 22 -15 13 -15 13
6 3 12 -6 22 -13 22 -15z m-112 -10 c-3 -3 -9 2 -12 12 -6 14 -5 15 5 6 7 -7
10 -15 7 -18z m262 17 c0 -12 -39 -56 -44 -51 -4 4 35 58 42 59 1 0 2 -4 2 -8z
m-550 -16 c0 -3 -4 -8 -10 -11 -5 -3 -10 -1 -10 4 0 6 5 11 10 11 6 0 10 -2
10 -4z m40 -22 c0 -8 -19 -13 -24 -6 -3 5 1 9 9 9 8 0 15 -2 15 -3z m431 -19
c5 4 6 -1 2 -10 -5 -13 -7 -14 -14 -3 -5 7 -8 18 -8 23 0 6 3 4 6 -3 2 -6 9
-10 14 -7z m-171 1 c0 -3 -4 -8 -10 -11 -5 -3 -10 -1 -10 4 0 6 5 11 10 11 6
0 10 -2 10 -4z m50 -16 c6 -11 8 -20 6 -20 -3 0 -10 9 -16 20 -6 11 -8 20 -6
20 3 0 10 -9 16 -20z m50 5 c0 -2 -9 -3 -19 -2 -11 0 -18 5 -15 9 4 6 34 0 34
-7z m114 -24 c-4 -3 -9 0 -11 7 -3 6 -10 9 -15 6 -7 -4 -8 -2 -4 5 6 9 11 9
22 0 8 -6 12 -15 8 -18z m240 21 c3 -5 -1 -9 -9 -9 -8 0 -12 4 -9 9 3 4 7 8 9
8 2 0 6 -4 9 -8z"/>
<path d="M4191 5866 c-21 -22 -21 -24 -5 -22 11 2 19 7 19 12 0 5 4 15 8 22
13 20 2 14 -22 -12z"/>
<path d="M4150 5826 c0 -2 8 -10 18 -17 15 -13 16 -12 3 4 -13 16 -21 21 -21
13z"/>
<path d="M4340 5860 c-9 -6 -10 -10 -3 -10 6 0 15 5 18 10 8 12 4 12 -15 0z"/>
<path d="M4269 5763 c-1 -5 -1 -12 0 -16 1 -4 -6 -10 -14 -13 -8 -3 -12 -10
-9 -16 3 -5 12 -1 20 9 14 17 14 17 28 0 8 -10 17 -14 20 -9 3 5 -6 15 -19 22
-13 7 -22 17 -19 22 3 4 3 8 0 8 -3 0 -7 -3 -7 -7z"/>
<path d="M4270 5720 c0 -5 5 -10 10 -10 6 0 10 5 10 10 0 6 -4 10 -10 10 -5 0
-10 -4 -10 -10z"/>
<path d="M4155 1229 c-4 -6 -5 -12 -2 -15 2 -3 7 2 10 11 7 17 1 20 -8 4z"/>
<path d="M3946 1201 c-3 -5 -19 -7 -36 -6 -17 1 -33 -2 -37 -8 -3 -6 -1 -7 5
-3 7 4 19 -6 31 -24 14 -25 20 -28 25 -15 3 9 0 18 -9 21 -8 4 -12 10 -9 15 3
5 9 7 14 4 4 -3 13 2 20 10 7 8 10 15 7 15 -3 0 -8 -4 -11 -9z"/>
<path d="M3906 1101 c-9 -9 -16 -22 -16 -27 0 -5 5 -2 10 6 6 10 10 11 10 3 0
-7 5 -13 12 -13 6 0 8 3 5 7 -4 3 -2 12 4 19 16 20 -7 25 -25 5z"/>
<path d="M4073 1075 c0 -8 4 -15 9 -15 4 0 8 4 8 9 0 6 -4 12 -8 15 -5 3 -9
-1 -9 -9z"/>
<path d="M3917 1029 c-9 -6 -15 -15 -11 -20 3 -5 1 -16 -6 -24 -9 -11 -7 -13
7 -11 11 2 17 10 15 22 -3 16 -2 16 15 3 16 -13 17 -12 5 3 -8 9 -11 22 -7 28
8 12 5 12 -18 -1z"/>
<path d="M3505 1000 c3 -5 8 -10 11 -10 2 0 4 5 4 10 0 6 -5 10 -11 10 -5 0
-7 -4 -4 -10z"/>
<path d="M3925 6010 c-7 -12 2 -30 15 -30 5 0 8 6 6 13 -1 6 -1 9 1 5 3 -5 11
-8 18 -8 7 0 16 -7 19 -16 3 -8 10 -13 15 -10 5 4 11 3 14 -1 2 -5 2 -1 0 7
-2 11 0 11 11 -2 15 -21 36 -24 36 -5 0 9 2 9 8 0 5 -8 11 -8 24 1 10 7 15 16
11 19 -3 4 -12 2 -20 -4 -7 -6 -13 -8 -13 -4 0 4 -7 2 -15 -5 -13 -11 -14 -10
-9 5 5 12 4 16 -4 11 -6 -3 -14 -1 -18 5 -4 8 -9 7 -15 -2 -8 -11 -12 -10 -24
5 -8 11 -15 16 -15 11 0 -5 -5 -4 -12 3 -15 15 -25 15 -33 2z"/>
<path d="M3937 5959 c-10 -11 -23 -30 -28 -42 -6 -12 -26 -32 -45 -45 -19 -12
-32 -27 -29 -32 3 -6 20 3 37 19 l31 29 19 -24 c11 -13 17 -28 14 -33 -8 -13
20 -21 32 -9 12 12 35 1 27 -12 -7 -11 9 -21 38 -25 41 -7 56 -11 63 -17 3 -4
12 -4 20 -1 10 4 8 9 -9 24 -12 10 -17 18 -10 19 6 0 10 11 8 25 -1 14 2 28 6
31 5 3 9 11 9 17 0 8 -3 8 -9 -2 -6 -10 -10 -10 -16 -1 -6 9 -10 9 -16 -1 -13
-21 -11 -33 4 -21 10 8 13 6 14 -11 0 -12 -1 -16 -4 -9 -3 6 -9 10 -14 6 -5
-3 -6 -11 -2 -17 20 -32 -9 -46 -47 -22 -9 6 -11 4 -5 -5 6 -9 4 -11 -4 -5 -9
5 -10 10 -2 18 14 14 14 37 0 37 -5 0 -8 -4 -4 -9 10 -17 -12 -21 -25 -6 -11
13 -14 13 -27 -2 -13 -16 -13 -15 -2 6 9 20 9 23 -3 19 -8 -4 -21 6 -31 25
-14 23 -14 27 -3 18 8 -7 20 -10 26 -6 14 9 13 23 -2 21 -15 -1 -24 17 -11 21
14 5 31 -11 35 -32 1 -11 -2 -20 -9 -20 -6 0 -15 -3 -19 -7 -13 -14 30 -8 49
6 16 12 16 14 1 20 -9 3 -14 13 -11 21 4 8 -2 16 -14 20 -10 4 -19 11 -19 16
0 6 14 1 30 -11 35 -25 41 -17 8 11 -29 23 -30 23 -51 -2z"/>
<path d="M4085 5950 c-4 -6 -11 -7 -17 -4 -7 4 -8 2 -4 -4 4 -7 2 -12 -5 -12
-10 0 -10 -3 -1 -12 19 -19 14 -30 -10 -23 -18 5 -20 4 -8 -4 13 -10 13 -11 0
-11 -13 0 -13 -1 0 -11 13 -9 13 -10 0 -6 -8 2 -14 10 -12 16 3 15 -10 14 -34
-3 -18 -14 -18 -15 -1 -33 12 -12 17 -13 15 -4 -5 22 20 24 32 2 8 -16 8 -21
-2 -21 -8 0 -6 -5 5 -11 25 -15 45 1 21 18 -17 13 -17 15 -2 40 18 29 54 38
67 15 7 -12 9 -12 14 2 3 8 2 18 -4 21 -5 4 -7 10 -4 15 3 4 -3 7 -13 6 -11
-1 -16 5 -14 17 3 18 -13 23 -23 7z m10 -9 c-3 -5 -1 -12 5 -16 6 -4 8 -11 4
-16 -4 -6 -11 -6 -20 2 -11 9 -11 15 -3 25 13 16 23 19 14 5z"/>
<path d="M4016 5934 c-3 -9 -10 -12 -16 -9 -5 3 -10 1 -10 -4 0 -12 2 -13 42
-15 19 -1 24 1 18 9 -6 7 -7 14 -4 17 2 3 -2 8 -10 11 -8 3 -17 -1 -20 -9z"/>
<path d="M4475 5881 c6 -11 4 -13 -11 -8 -19 7 -19 7 0 -8 10 -8 23 -12 27 -9
5 3 9 -3 10 -13 0 -14 2 -15 6 -3 3 8 11 19 17 23 7 6 6 7 -4 4 -8 -2 -24 3
-34 12 -14 11 -17 12 -11 2z"/>
<path d="M4460 5841 c0 -5 7 -11 15 -15 8 -3 15 -1 15 3 0 5 -7 11 -15 15 -8
3 -15 1 -15 -3z"/>
<path d="M4531 5834 c7 -8 2 -14 -18 -19 -21 -5 -24 -8 -12 -16 7 -5 19 -9 24
-9 6 0 4 4 -3 9 -10 6 -8 10 8 14 12 3 19 10 16 16 -3 5 2 12 11 14 10 3 6 4
-9 4 -19 -1 -24 -5 -17 -13z"/>
<path d="M4565 5823 c6 -4 11 -16 11 -26 2 -13 -3 -16 -20 -12 -18 5 -19 5 -3
-5 9 -6 21 -9 25 -6 14 8 7 50 -9 54 -8 2 -10 0 -4 -5z"/>
<path d="M4416 5805 c4 -8 10 -15 15 -15 4 0 6 7 3 15 -4 8 -10 15 -15 15 -4
0 -6 -7 -3 -15z"/>
<path d="M4450 5809 c0 -5 5 -7 10 -4 6 3 10 8 10 11 0 2 -4 4 -10 4 -5 0 -10
-5 -10 -11z"/>
<path d="M4620 5809 c0 -5 -4 -7 -10 -4 -5 3 -10 1 -10 -4 0 -6 5 -11 11 -11
5 0 7 -6 3 -12 -4 -7 -3 -10 1 -5 10 8 18 47 10 47 -3 0 -5 -5 -5 -11z"/>
<path d="M4470 5791 c0 -10 30 -24 37 -17 3 2 -5 9 -16 16 -12 6 -21 7 -21 1z"/>
<path d="M4636 5773 c-6 -14 -5 -15 5 -6 7 7 10 15 7 18 -3 3 -9 -2 -12 -12z"/>
<path d="M4521 5777 c-2 -17 20 -47 30 -42 5 4 9 2 9 -4 0 -5 -5 -12 -10 -14
-6 -3 -5 -4 2 -3 7 2 13 9 13 17 0 8 -6 13 -14 11 -9 -2 -11 3 -7 13 3 9 2 14
-3 10 -5 -3 -12 1 -14 7 -3 7 -6 9 -6 5z"/>
<path d="M4579 5759 c-12 -8 -12 -10 1 -8 30 3 41 -1 34 -13 -4 -7 -3 -8 4 -4
16 10 15 14 -6 25 -12 6 -23 6 -33 0z"/>
<path d="M4656 5754 c-3 -8 0 -16 6 -20 7 -5 8 -2 3 6 -6 9 -4 12 7 8 8 -4 15
-1 15 6 0 17 -25 16 -31 0z"/>
<path d="M4710 5750 c-9 -6 -10 -10 -3 -10 6 0 15 5 18 10 8 12 4 12 -15 0z"/>
<path d="M4505 5740 c-3 -5 1 -20 9 -31 15 -22 15 -22 13 -1 0 11 -5 18 -11
15 -5 -4 -7 1 -3 10 7 19 2 23 -8 7z"/>
<path d="M4583 5721 c-7 -11 -9 -22 -6 -25 10 -10 33 -7 33 4 0 5 -8 6 -17 3
-16 -6 -16 -5 -4 10 8 10 12 19 10 22 -3 2 -10 -4 -16 -14z"/>
<path d="M4735 5730 c-4 -6 -12 -7 -18 -4 -7 4 -9 4 -5 -1 4 -4 2 -15 -5 -24
-10 -14 -10 -14 5 -3 9 8 21 11 25 9 5 -3 9 3 9 14 0 22 -2 23 -11 9z"/>
<path d="M4626 5722 c-3 -5 1 -9 9 -9 8 0 15 4 15 9 0 4 -4 8 -9 8 -6 0 -12
-4 -15 -8z"/>
<path d="M4656 5702 c-9 -15 9 -31 24 -22 13 8 12 10 -3 10 -10 0 -15 5 -12
10 3 6 4 10 1 10 -3 0 -7 -4 -10 -8z"/>
<path d="M4621 5684 c0 -11 3 -14 6 -6 3 7 2 16 -1 19 -3 4 -6 -2 -5 -13z"/>
<path d="M4783 5684 c9 -11 14 -23 11 -26 -3 -3 -1 -8 4 -12 18 -11 8 25 -12
41 -21 18 -21 18 -3 -3z"/>
<path d="M4596 5667 c3 -10 9 -15 12 -12 3 3 0 11 -7 18 -10 9 -11 8 -5 -6z"/>
<path d="M4430 5667 c0 -3 14 -19 30 -37 29 -31 42 -31 17 0 -15 19 -47 44
-47 37z"/>
<path d="M4612 5645 c-8 -10 -9 -15 -2 -15 6 0 8 -6 4 -12 -4 -7 -3 -10 1 -5
8 7 19 48 12 47 -1 -1 -8 -7 -15 -15z"/>
<path d="M4876 5647 c3 -10 9 -15 12 -12 3 3 0 11 -7 18 -10 9 -11 8 -5 -6z"/>
<path d="M4492 5638 c3 -7 15 -14 27 -16 16 -3 19 -7 12 -16 -7 -9 -3 -12 17
-13 21 -1 23 0 9 6 -10 4 -17 11 -15 16 2 6 -7 11 -20 13 -12 2 -20 8 -17 13
4 5 1 9 -5 9 -7 0 -10 -6 -8 -12z"/>
<path d="M4573 5636 c3 -8 2 -17 -4 -20 -5 -2 -4 -3 2 -2 15 3 21 36 7 36 -6
0 -8 -6 -5 -14z"/>
<path d="M4716 5641 c3 -3 21 -6 39 -6 19 -1 32 1 29 4 -3 3 -21 6 -39 6 -19
1 -32 -1 -29 -4z"/>
<path d="M4430 5636 c0 -2 8 -10 18 -17 15 -13 16 -12 3 4 -13 16 -21 21 -21
13z"/>
<path d="M4650 5610 c0 -5 -5 -9 -11 -7 -6 1 -14 -5 -16 -13 -4 -12 -3 -12 5
-2 5 8 13 13 18 12 5 -1 10 3 12 9 2 6 1 11 -2 11 -3 0 -6 -4 -6 -10z"/>
<path d="M4595 5603 c3 -3 -2 -11 -10 -17 -11 -8 -12 -15 -4 -26 9 -12 10 -12
5 4 -5 13 -2 17 8 13 14 -6 17 17 3 28 -4 3 -5 2 -2 -2z"/>
<path d="M4755 5580 c6 -30 16 -40 12 -12 -2 12 -6 24 -10 28 -3 4 -4 -4 -2
-16z"/>
<path d="M4685 5579 c-4 -6 -5 -12 -2 -15 2 -3 7 2 10 11 7 17 1 20 -8 4z"/>
<path d="M4710 5586 c0 -2 7 -7 16 -10 8 -3 12 -2 9 4 -6 10 -25 14 -25 6z"/>
<path d="M4636 5571 c-3 -4 1 -17 10 -27 14 -18 15 -18 5 2 -6 12 -7 24 -4 28
3 3 4 6 0 6 -3 0 -8 -4 -11 -9z"/>
<path d="M4934 5536 c1 -8 5 -18 8 -22 4 -3 5 1 4 10 -1 8 -5 18 -8 22 -4 3
-5 -1 -4 -10z"/>
<path d="M4833 5525 c0 -8 4 -12 9 -9 5 3 6 10 3 15 -9 13 -12 11 -12 -6z"/>
<path d="M4676 5519 c3 -5 0 -9 -7 -9 -7 0 -9 -3 -6 -6 4 -4 13 -2 21 5 10 8
16 9 19 1 3 -6 5 -6 3 1 -1 7 -10 13 -19 15 -9 1 -15 -2 -11 -7z"/>
<path d="M4775 5519 c-5 -7 -4 -10 3 -5 20 12 24 -15 6 -37 -18 -21 -18 -21 6
0 22 21 23 24 8 39 -12 12 -17 13 -23 3z"/>
<path d="M4890 5500 c0 -5 5 -10 11 -10 5 0 7 5 4 10 -3 6 -8 10 -11 10 -2 0
-4 -4 -4 -10z"/>
<path d="M4833 5475 c0 -8 4 -12 9 -9 5 3 6 10 3 15 -9 13 -12 11 -12 -6z"/>
<path d="M5035 5451 c-3 -5 -2 -12 3 -15 5 -3 9 1 9 9 0 17 -3 19 -12 6z"/>
<path d="M4866 5442 c-3 -5 1 -9 9 -9 8 0 15 4 15 9 0 4 -4 8 -9 8 -6 0 -12
-4 -15 -8z"/>
<path d="M4915 5440 c3 -5 8 -10 11 -10 2 0 4 5 4 10 0 6 -5 10 -11 10 -5 0
-7 -4 -4 -10z"/>
<path d="M4955 5420 c3 -5 8 -10 11 -10 2 0 4 5 4 10 0 6 -5 10 -11 10 -5 0
-7 -4 -4 -10z"/>
<path d="M5035 5361 c-3 -5 -2 -12 3 -15 5 -3 9 1 9 9 0 17 -3 19 -12 6z"/>
<path d="M4930 5341 c0 -6 4 -13 10 -16 6 -3 7 1 4 9 -7 18 -14 21 -14 7z"/>
<path d="M4986 1682 c-3 -5 1 -9 9 -9 8 0 12 4 9 9 -3 4 -7 8 -9 8 -2 0 -6 -4
-9 -8z"/>
<path d="M4746 1538 c3 -5 10 -6 15 -3 13 9 11 12 -6 12 -8 0 -12 -4 -9 -9z"/>
<path d="M4676 1473 c-6 -14 -5 -15 5 -6 7 7 10 15 7 18 -3 3 -9 -2 -12 -12z"/>
<path d="M4694 1436 c1 -8 5 -18 8 -22 4 -3 5 1 4 10 -1 8 -5 18 -8 22 -4 3
-5 -1 -4 -10z"/>
<path d="M4493 1396 c-3 -6 -3 -8 2 -4 4 4 13 3 20 -2 8 -7 12 -5 12 3 0 16
-25 18 -34 3z"/>
<path d="M4555 1403 c3 -3 0 -11 -5 -18 -7 -8 -5 -12 4 -12 14 0 16 22 3 32
-4 3 -5 2 -2 -2z"/>
<path d="M4586 1398 c3 -4 9 -8 15 -8 5 0 9 4 9 8 0 5 -7 9 -15 9 -8 0 -12 -4
-9 -9z"/>
<path d="M4440 1375 c-19 -22 -8 -25 13 -3 9 10 13 18 8 18 -5 0 -14 -7 -21
-15z"/>
<path d="M4699 1388 c-5 -18 -6 -38 -1 -34 7 8 12 36 6 36 -2 0 -4 -1 -5 -2z"/>
<path d="M4493 1367 c0 -7 9 -14 20 -14 11 -1 18 -1 16 0 -2 2 -11 8 -20 15
-12 9 -16 9 -16 -1z"/>
<path d="M4590 1366 c0 -2 7 -7 16 -10 8 -3 12 -2 9 4 -6 10 -25 14 -25 6z"/>
<path d="M4391 1352 c-1 -7 -6 -10 -13 -6 -7 4 -8 3 -4 -5 4 -6 11 -9 16 -6 4
3 10 0 12 -7 3 -7 7 -5 11 6 4 9 3 15 -2 11 -5 -3 -12 1 -14 7 -4 10 -6 10 -6
0z"/>
<path d="M4316 1327 c3 -10 9 -15 12 -12 3 3 0 11 -7 18 -10 9 -11 8 -5 -6z"/>
<path d="M4494 1320 c0 -13 4 -16 10 -10 7 7 7 13 0 20 -6 6 -10 3 -10 -10z"/>
<path d="M4673 1325 c0 -8 4 -12 9 -9 5 3 6 10 3 15 -9 13 -12 11 -12 -6z"/>
<path d="M4345 1308 l-20 -21 23 12 c12 6 22 16 22 21 0 13 -2 12 -25 -12z"/>
<path d="M4715 1321 c-3 -5 -2 -12 3 -15 5 -3 9 1 9 9 0 17 -3 19 -12 6z"/>
<path d="M4266 1306 c3 -9 13 -16 22 -16 8 0 13 1 11 3 -2 1 -12 9 -22 16 -15
12 -17 12 -11 -3z"/>
<path d="M4195 1290 c-4 -6 -11 -8 -16 -5 -22 14 -6 -12 19 -30 18 -13 23 -14
14 -3 -10 13 -10 17 3 22 8 3 15 11 14 18 0 10 -2 10 -6 1 -2 -7 -9 -13 -14
-13 -6 0 -7 5 -4 10 3 6 4 10 1 10 -3 0 -8 -5 -11 -10z"/>
<path d="M4252 1280 c0 -14 2 -19 5 -12 2 6 2 18 0 25 -3 6 -5 1 -5 -13z"/>
<path d="M4515 1290 c-4 -6 -10 -8 -14 -6 -4 3 -8 -1 -8 -9 0 -13 4 -12 19 2
18 16 22 23 14 23 -3 0 -8 -5 -11 -10z"/>
<path d="M4340 1270 c-6 -11 -8 -20 -6 -20 3 0 10 9 16 20 6 11 8 20 6 20 -3
0 -10 -9 -16 -20z"/>
<path d="M4380 1276 c0 -2 7 -7 16 -10 8 -3 12 -2 9 4 -6 10 -25 14 -25 6z"/>
<path d="M4230 1265 c0 -5 4 -16 9 -24 7 -10 12 -11 27 -1 16 9 16 11 2 6 -10
-3 -22 2 -27 12 -6 9 -10 13 -11 7z"/>
<path d="M4294 1259 c-5 -8 -3 -9 6 -4 10 6 12 4 7 -8 -3 -8 0 -18 7 -20 10
-4 12 1 9 14 -7 25 -20 33 -29 18z"/>
<path d="M4428 1263 c7 -3 16 -2 19 1 4 3 -2 6 -13 5 -11 0 -14 -3 -6 -6z"/>
<path d="M4675 1259 c-3 -4 2 -6 10 -5 21 3 28 13 10 13 -9 0 -18 -4 -20 -8z"/>
<path d="M4455 1251 c-3 -6 -14 -8 -24 -6 -10 2 -18 -3 -18 -11 0 -11 3 -11
16 -1 12 10 14 9 9 -4 -4 -9 -1 -16 8 -16 7 0 11 4 8 9 -3 5 0 15 6 23 7 8 10
15 7 15 -3 0 -8 -4 -12 -9z"/>
<path d="M4353 1236 c0 -8 6 -12 14 -9 7 3 10 9 7 14 -8 14 -21 11 -21 -5z"/>
<path d="M4473 1227 c0 -8 6 -14 14 -14 9 0 10 4 2 14 -6 7 -12 13 -14 13 -1
0 -2 -6 -2 -13z"/>
<path d="M4220 1215 c7 -8 20 -14 29 -14 13 1 13 2 -1 6 -10 2 -18 9 -18 14 0
5 -5 9 -11 9 -8 0 -8 -5 1 -15z"/>
<path d="M4270 1220 c0 -5 5 -10 10 -10 6 0 10 5 10 10 0 6 -4 10 -10 10 -5 0
-10 -4 -10 -10z"/>
<path d="M4348 1192 c9 -10 19 -17 21 -16 6 5 -20 34 -30 34 -5 0 -1 -8 9 -18z"/>
<path d="M4385 1199 c-4 -6 -4 -13 -1 -16 3 -4 6 -1 6 6 0 7 5 9 10 6 6 -3 10
-1 10 4 0 14 -17 14 -25 0z"/>
<path d="M3669 1158 c-20 -40 -32 -50 -23 -20 5 14 4 15 -5 2 -8 -11 -7 -18 4
-26 9 -7 13 -19 9 -28 -7 -18 11 -22 22 -4 5 7 2 9 -7 4 -8 -4 -5 0 5 8 18 15
15 21 -8 17 -5 -1 -4 4 2 12 7 8 8 18 4 23 -4 4 1 2 11 -5 10 -8 17 -9 17 -3
0 6 -4 13 -10 17 -5 3 -6 13 -3 21 4 11 9 12 16 5 7 -7 15 -7 26 2 11 9 13 9
8 0 -5 -7 1 -18 13 -25 19 -12 28 -29 13 -27 -23 4 -31 -3 -29 -25 2 -15 -1
-23 -9 -20 -6 3 -12 -2 -12 -11 0 -11 6 -13 20 -9 14 4 18 2 14 -7 -5 -15 -10
-15 -40 -4 -12 5 -16 3 -12 -7 9 -22 43 -19 60 5 14 20 21 13 16 -15 -2 -14
11 -9 25 10 13 16 14 16 8 -3 -3 -12 -2 -16 3 -9 5 7 14 4 26 -8 10 -10 12
-18 5 -18 -6 0 -8 -3 -5 -6 11 -11 35 15 33 34 -2 9 -12 17 -22 17 -11 0 -32
8 -46 17 -19 12 -29 14 -34 7 -4 -8 -9 -7 -15 2 -5 8 -2 20 8 31 12 14 19 15
35 5 16 -10 21 -9 29 6 10 17 12 17 29 2 17 -15 18 -15 16 -1 -4 29 -22 39
-46 26 -20 -11 -21 -10 -10 10 11 20 10 21 -9 11 -20 -11 -38 0 -27 17 3 5
-16 8 -41 8 -42 -1 -46 -4 -64 -38z m125 -1 c4 4 4 -1 0 -12 -6 -15 -4 -17 10
-12 10 4 15 3 11 -3 -10 -17 -20 -12 -45 23 -19 26 -20 29 -3 14 11 -9 23 -14
27 -10z m63 -124 c0 -9 -4 -10 -14 -2 -7 6 -13 12 -13 14 0 1 6 2 13 2 8 0 14
-6 14 -14z"/>
<path d="M4281 1193 c-1 -17 16 -25 25 -12 4 7 3 9 -4 5 -5 -3 -13 0 -15 6 -4
9 -6 10 -6 1z"/>
<path d="M3577 1166 c10 -14 22 -21 27 -16 9 9 -11 33 -32 38 -9 1 -7 -6 5
-22z"/>
<path d="M4213 1178 c-19 -25 -24 -38 -14 -38 6 0 11 8 11 18 1 16 1 16 14 0
7 -10 19 -18 25 -18 7 0 9 -5 6 -10 -4 -6 -16 -8 -28 -5 -20 5 -20 4 1 -7 19
-9 25 -9 33 3 6 9 4 18 -6 25 -12 9 -12 13 3 27 9 9 11 17 5 17 -6 0 -14 -7
-17 -16 -3 -8 -11 -12 -17 -8 -8 4 -7 9 2 15 8 5 9 9 3 9 -6 0 -16 -6 -21 -12z"/>
<path d="M4320 1186 c0 -2 7 -7 16 -10 8 -3 12 -2 9 4 -6 10 -25 14 -25 6z"/>
<path d="M4468 1183 c7 -3 16 -2 19 1 4 3 -2 6 -13 5 -11 0 -14 -3 -6 -6z"/>
<path d="M4500 1185 c0 -2 6 -8 13 -14 10 -8 14 -7 14 2 0 8 -6 14 -14 14 -7
0 -13 -1 -13 -2z"/>
<path d="M3705 1150 c18 -20 11 -26 -20 -20 -5 1 -5 -4 2 -11 17 -17 0 -45
-40 -66 -20 -10 -27 -18 -18 -21 7 -2 18 2 23 9 8 11 9 10 5 -3 -4 -12 0 -16
14 -15 10 1 19 7 19 15 0 7 -5 10 -11 7 -6 -4 -5 2 2 13 7 12 17 18 23 15 5
-3 6 -1 3 4 -4 6 0 16 8 23 8 7 12 16 9 21 -3 5 2 12 11 15 12 5 13 9 4 21
-10 11 -14 11 -20 1 -7 -10 -9 -10 -9 0 0 6 -5 12 -12 12 -6 0 -3 -9 7 -20z"/>
<path d="M4300 1160 c-8 -5 -10 -10 -5 -10 6 0 17 5 25 10 8 5 11 10 5 10 -5
0 -17 -5 -25 -10z"/>
<path d="M4459 1153 c-13 -16 -12 -17 3 -5 19 15 42 7 32 -10 -4 -7 -2 -8 5
-4 9 6 9 11 0 22 -15 18 -24 18 -40 -3z"/>
<path d="M4539 1153 c-13 -16 -12 -17 4 -4 9 7 17 15 17 17 0 8 -8 3 -21 -13z"/>
<path d="M4335 1140 c6 -10 4 -12 -9 -7 -9 4 -15 3 -11 -2 3 -5 -1 -12 -7 -14
-7 -3 -8 -6 -2 -6 5 -1 18 5 29 12 14 11 15 16 5 22 -9 6 -11 4 -5 -5z"/>
<path d="M4350 1110 c0 -5 5 -10 11 -10 5 0 7 5 4 10 -3 6 -8 10 -11 10 -2 0
-4 -4 -4 -10z"/>
<path d="M4430 1110 c0 -5 5 -10 11 -10 5 0 7 5 4 10 -3 6 -8 10 -11 10 -2 0
-4 -4 -4 -10z"/>
<path d="M4200 1100 c20 -13 33 -13 25 0 -3 6 -14 10 -23 10 -15 0 -15 -2 -2
-10z"/>
<path d="M4270 1100 c0 -5 5 -10 10 -10 6 0 10 5 10 10 0 6 -4 10 -10 10 -5 0
-10 -4 -10 -10z"/>
<path d="M4180 1080 c0 -5 5 -10 10 -10 6 0 10 5 10 10 0 6 -4 10 -10 10 -5 0
-10 -4 -10 -10z"/>
<path d="M4235 1080 c-4 -6 -11 -7 -17 -4 -7 4 -8 2 -4 -4 4 -7 0 -12 -11 -13
-10 0 -13 -3 -6 -6 7 -2 25 5 39 16 15 12 22 21 16 21 -6 0 -14 -5 -17 -10z"/>
<path d="M4308 1083 c7 -3 16 -2 19 1 4 3 -2 6 -13 5 -11 0 -14 -3 -6 -6z"/>
<path d="M4231 1049 c-13 -10 -20 -19 -15 -19 4 0 16 8 27 18 20 16 20 16 13
-3 -6 -16 -5 -18 5 -7 23 22 -4 32 -30 11z"/>
<path d="M4295 1060 c-3 -5 -1 -10 4 -10 6 0 11 5 11 10 0 6 -2 10 -4 10 -3 0
-8 -4 -11 -10z"/>
<path d="M3750 1035 c-12 -14 -7 -19 13 -16 5 1 6 -3 2 -8 -3 -6 -12 -8 -20
-4 -8 3 -15 0 -15 -6 0 -12 2 -12 40 -15 14 0 30 -4 37 -9 6 -4 19 -4 28 -1
13 5 14 8 3 15 -7 5 -13 14 -13 21 0 8 -12 13 -30 13 -19 0 -29 5 -27 13 3 16
-3 15 -18 -3z m66 -37 c0 -18 -1 -18 -13 -2 -8 11 -13 13 -13 5 0 -7 -5 -9
-11 -5 -8 5 -8 8 0 14 21 12 37 7 37 -12z"/>
<path d="M3700 1020 c-7 -4 -26 -7 -41 -5 -31 4 -47 -11 -31 -27 8 -8 15 -8
25 1 12 9 16 8 20 -3 3 -7 0 -13 -6 -13 -30 1 -50 -4 -43 -10 9 -9 66 -11 60
-2 -8 14 16 20 37 9 19 -11 20 -10 9 9 -6 12 -8 26 -5 31 8 13 -9 20 -25 10z
m11 -27 c13 -16 12 -17 -3 -4 -17 13 -22 21 -14 21 2 0 10 -8 17 -17z"/>
<path d="M4080 1000 c-12 -7 -10 -9 8 -7 12 0 22 5 22 9 0 11 -12 10 -30 -2z"/>
</g>
</svg>
